<svg xmlns="http://www.w3.org/2000/svg" width="1887" height="1887" fill="none"><path fill="#fff" d="M255.564 772.032c38.421-251.505 195.963-560.489 507.196-592.828 0 0 236.302-28.742 469.25 14.822 138.25 25.853 259.47 102.818 336.18 213.429 76.71 110.616 102.33 245.493 71.24 374.084-20.2 83.521-33.85 169.957-30.1 255.781 4.72 108.23 13.61 222.03-34.23 322.96-70.11 147.89-241.16 191.44-390.42 205.34-55 5.12-110.21 7.18-165.26 11.54-105.603 8.35-224.037-5.17-325.823-32.66-518.721-140.12-476.455-520.97-438.033-772.468Z"/><g opacity=".3"><path fill="url(#a)" d="m772.419 1356.78-175.003 9.64-89.767-152.17 89.767-159.38 175.003-4.4 85.312 149.73-85.312 156.58Zm-167.943-3.11 161.107-8.68 78.699-144.25-78.699-137.93-161.107 4.24-82.474 146.62 82.474 140Z"/><path fill="url(#b)" d="M629.663 1060.23c0 15.34-12.278 28.11-27.466 28.54-15.228.44-27.608-11.71-27.608-27.13 0-15.41 12.38-28.19 27.608-28.55 15.188-.35 27.466 11.8 27.466 27.14Z"/><path fill="url(#c)" d="M794.458 1055.99c0 15.09-11.892 27.66-26.596 28.08-14.751.42-26.734-11.54-26.734-26.71 0-15.17 11.989-27.74 26.734-28.08 14.704-.34 26.596 11.62 26.596 26.71Z"/><path fill="url(#d)" d="M629.663 1358.48c0 15.33-12.278 28.47-27.466 29.34-15.228.86-27.608-10.93-27.608-26.34 0-15.42 12.38-28.56 27.608-29.34 15.188-.79 27.466 11 27.466 26.34Z"/><path fill="url(#e)" d="M794.458 1349.5c0 15.09-11.892 28.01-26.596 28.84-14.751.85-26.734-10.76-26.734-25.94 0-15.16 11.989-28.08 26.734-28.85 14.704-.76 26.596 10.86 26.596 25.95Z"/><path fill="url(#f)" d="M545.257 1212.74c0 15.46-12.477 28.53-27.914 29.19-15.482.66-28.061-11.4-28.061-26.95 0-15.54 12.584-28.61 28.061-29.19 15.432-.58 27.914 11.49 27.914 26.95Z"/><path fill="url(#g)" d="M877.175 1199.43c0 14.96-11.698 27.6-26.168 28.22-14.512.62-26.302-11.07-26.302-26.12 0-15.04 11.796-27.68 26.302-28.23 14.47-.54 26.168 11.16 26.168 26.13Z"/><path fill="url(#h)" d="m772.419 1062.64-175.003 4.6-89.767-154.751L597.416 755.7l175.003.636 85.312 152.181-85.312 154.123Zm-167.943-7.94 161.107-4.05 78.699-141.98-78.699-140.198-161.107-.397-82.474 144.246 82.474 142.379Z"/><path fill="url(#i)" d="M629.663 761.977c0 15.335-12.278 27.761-27.466 27.756-15.228-.005-27.608-12.507-27.608-27.924 0-15.416 12.38-27.842 27.608-27.756 15.188.092 27.466 12.589 27.466 27.924Z"/><path fill="url(#j)" d="M794.458 762.481c0 15.09-11.892 27.318-26.596 27.313-14.751-.005-26.734-12.309-26.734-27.476s11.989-27.4 26.734-27.313c14.704.081 26.596 12.385 26.596 27.476Z"/><path fill="url(#k)" d="M545.257 912.062c0 15.457-12.477 28.168-27.914 28.381-15.482.219-28.061-12.207-28.061-27.745 0-15.544 12.584-28.249 28.061-28.386 15.432-.133 27.914 12.288 27.914 27.75Z"/><path fill="url(#l)" d="M877.175 908.298c0 14.969-11.698 27.268-26.168 27.471-14.512.204-26.302-11.83-26.302-26.876 0-15.045 11.796-27.343 26.302-27.47 14.47-.128 26.168 11.907 26.168 26.875Z"/><path fill="url(#m)" d="m1013.73 1199.88-166.777 6.79-85.49-149.83 85.49-154.228 166.777-1.79 81.35 147.438-81.35 151.62Zm-160.048-5.54 153.538-6.07 75.03-139.69-75.03-135.826-153.538 1.831-78.547 141.895 78.547 137.86Z"/><path fill="url(#n)" d="M1034.74 906.508c0 14.735-11.34 26.84-25.36 27.039-14.056.198-25.485-11.648-25.485-26.459s11.429-26.917 25.485-27.039c14.02-.122 25.36 11.724 25.36 26.459Z"/><path fill="url(#o)" d="M1034.74 1193.11c0 14.73-11.34 27.16-25.36 27.76-14.056.6-25.485-10.91-25.485-25.72 0-14.81 11.429-27.24 25.485-27.77 14.02-.53 25.36 10.99 25.36 25.73Z"/><path fill="url(#p)" d="M1113.63 1047.78c0 14.62-11.16 26.78-24.96 27.17-13.84.4-25.09-11.2-25.09-25.88 0-14.7 11.25-26.87 25.09-27.19 13.8-.32 24.96 11.28 24.96 25.9Z"/><path fill="url(#q)" d="m1241.34 1330.95-159.2 8.76-81.56-145.23 81.56-151.78 159.2-4.01 77.69 143.01-77.69 149.25Zm-152.78-3.37 146.56-7.9 71.66-137.48-71.66-131.74-146.56 3.85-74.94 139.64 74.94 133.63Z"/><path fill="url(#r)" d="M1111.46 1047.83c0 14.63-11.17 26.8-24.97 27.19-13.84.39-25.1-11.2-25.1-25.89 0-14.7 11.26-26.87 25.1-27.19 13.8-.32 24.97 11.27 24.97 25.89Z"/><path fill="url(#s)" d="M1261.4 1043.98c0 14.4-10.83 26.38-24.21 26.76-13.43.38-24.34-11.04-24.34-25.51 0-14.47 10.91-26.45 24.34-26.76 13.38-.32 24.21 11.1 24.21 25.51Z"/><path fill="url(#t)" d="M1111.46 1332.22c0 14.63-11.17 27.12-24.97 27.91-13.84.79-25.1-10.48-25.1-25.18s11.26-27.19 25.1-27.91c13.8-.71 24.97 10.56 24.97 25.18Z"/><path fill="url(#u)" d="M1261.4 1324.05c0 14.4-10.83 26.7-24.21 27.46-13.43.77-24.34-10.34-24.34-24.81 0-14.47 10.91-26.77 24.34-27.47 13.38-.69 24.21 10.42 24.21 24.82Z"/><path fill="url(#v)" d="M1034.74 1193.11c0 14.73-11.34 27.16-25.36 27.76-14.056.6-25.485-10.91-25.485-25.72 0-14.81 11.429-27.24 25.485-27.77 14.02-.53 25.36 10.99 25.36 25.73Z"/><path fill="url(#w)" d="M1336.75 1180.99c0 14.29-10.66 26.33-23.84 26.89-13.22.57-23.96-10.61-23.96-24.97s10.74-26.4 23.96-26.9c13.18-.49 23.84 10.7 23.84 24.98Z"/><path fill="url(#x)" d="m1241.34 1050.29-159.2 4.19-81.56-147.581 81.56-149.434 159.2.58 77.69 145.243-77.69 147.002Zm-152.78-7.76 146.56-3.68 71.66-135.424-71.66-133.799-146.56-.362-74.94 137.487 74.94 135.778Z"/><path fill="url(#y)" d="M1111.46 763.447c0 14.623-11.17 26.469-24.97 26.464-13.84-.005-25.1-11.923-25.1-26.617s11.26-26.545 25.1-26.464c13.8.077 24.97 11.994 24.97 26.617Z"/><path fill="url(#z)" d="M1261.4 763.9c0 14.399-10.83 26.072-24.21 26.067-13.43-.005-24.34-11.739-24.34-26.215 0-14.47 10.91-26.143 24.34-26.062 13.38.076 24.21 11.81 24.21 26.21Z"/><path fill="url(#A)" d="M1034.74 906.508c0 14.735-11.34 26.84-25.36 27.039-14.056.198-25.485-11.648-25.485-26.459s11.429-26.917 25.485-27.039c14.02-.122 25.36 11.724 25.36 26.459Z"/><path fill="url(#B)" d="M1336.75 903.085c0 14.287-10.66 26.021-23.84 26.204-13.22.183-23.96-11.306-23.96-25.665 0-14.358 10.74-26.092 23.96-26.209 13.18-.112 23.84 11.383 23.84 25.67Z"/><path fill="url(#C)" d="m1241.34 766.885-159.2-.432-81.56-149.953 81.56-147.064 159.2 5.203 77.69 147.502-77.69 144.744Zm-152.78-12.192 146.56.575 71.66-133.346-71.66-135.884-146.56-4.619-74.94 135.31 74.94 137.964Z"/><path fill="url(#D)" d="M1111.46 476.267c0 14.623-11.17 26.148-24.97 25.741-13.84-.407-25.1-12.649-25.1-27.348 0-14.695 11.26-26.22 25.1-25.737 13.8.483 24.97 12.721 24.97 27.344Z"/><path fill="url(#E)" d="M1261.4 481.078c0 14.4-10.83 25.757-24.21 25.36-13.43-.396-24.34-12.446-24.34-26.921 0-14.476 10.91-25.823 24.34-25.355 13.38.468 24.21 12.517 24.21 26.916Z"/><path fill="url(#F)" d="M1034.74 617.105c0 14.735-11.34 26.51-25.36 26.301-14.056-.213-25.485-12.39-25.485-27.201s11.429-26.586 25.485-26.296c14.02.285 25.36 12.461 25.36 27.196Z"/><path fill="url(#G)" d="M1336.75 622.451c0 14.287-10.66 25.711-23.84 25.513-13.22-.199-23.96-11.999-23.96-26.362 0-14.364 10.74-25.783 23.96-25.513 13.18.275 23.84 12.075 23.84 26.362Z"/><path fill="url(#H)" d="m1011.86 624.404-166.835-2.828-85.525-154.79 85.525-149.332 166.835 7.822 81.37 152.161-81.37 146.967Zm-160.111-14.771 153.591 2.783 75.07-135.386-75.07-140.177-153.591-7.019-78.577 137.389 78.577 142.41Z"/><path fill="url(#I)" d="M875.756 324.91c0 14.969-11.703 26.596-26.174 25.965-14.511-.63-26.311-13.346-26.311-28.396s11.795-26.667 26.311-25.96c14.471.712 26.174 13.422 26.174 28.391Z"/><path fill="url(#J)" d="M1032.88 332.189c0 14.74-11.35 26.189-25.37 25.578-14.063-.615-25.497-13.122-25.497-27.933s11.429-26.261 25.497-25.574c14.03.687 25.37 13.189 25.37 27.929Z"/><path fill="url(#K)" d="M795.322 467.93c0 15.091-11.886 26.973-26.591 26.546-14.745-.433-26.733-13.077-26.733-28.244 0-15.168 11.983-27.049 26.733-26.54 14.7.508 26.591 13.147 26.591 28.238Z"/><path fill="url(#L)" d="M1111.79 478.032c0 14.623-11.17 26.148-24.96 25.746-13.85-.407-25.09-12.644-25.09-27.343 0-14.695 11.25-26.22 25.09-25.742 13.8.478 24.96 12.716 24.96 27.339Z"/><path fill="url(#M)" d="m771.229 765.604-175.044-.479-89.787-157.378 89.787-154.2 175.044 5.722 85.332 154.678-85.332 151.657Zm-167.984-12.813 161.148.631 78.715-139.709-78.715-142.497-161.148-5.076-82.489 141.866 82.489 144.785Z"/><path fill="url(#N)" d="M628.437 460.764c0 15.335-12.283 27.41-27.471 26.962-15.233-.447-27.618-13.311-27.618-28.727s12.38-27.486 27.618-26.957c15.193.529 27.471 13.387 27.471 28.722Z"/><path fill="url(#O)" d="M793.272 466.054c0 15.091-11.891 26.977-26.601 26.545-14.75-.433-26.743-13.087-26.743-28.259 0-15.173 11.988-27.054 26.743-26.541 14.705.514 26.601 13.164 26.601 28.255Z"/><path fill="url(#P)" d="M544.01 608.413c0 15.462-12.481 27.806-27.918 27.572-15.483-.234-28.071-13.02-28.071-28.564s12.583-27.888 28.071-27.573c15.437.316 27.918 13.103 27.918 28.565Z"/><path fill="url(#Q)" d="M876.011 614.293c0 14.968-11.704 26.931-26.174 26.713-14.511-.219-26.306-12.594-26.306-27.644 0-15.045 11.795-27.008 26.306-26.708 14.47.295 26.174 12.67 26.174 27.639Z"/><path fill="url(#R)" d="m1461.26 1181.67-152.04 6.19-77.86-143.11 77.86-147.108 152.04-1.632 74.24 140.92-74.24 144.74Zm-145.92-5.57 139.97-5.53 68.49-133.34-68.49-129.817-139.97 1.668-71.54 135.349 71.54 131.67Z"/><path fill="url(#S)" d="M1480.43 901.457c0 14.074-10.35 25.63-23.14 25.813-12.82.178-23.25-11.139-23.25-25.284s10.43-25.701 23.25-25.812c12.79-.117 23.14 11.205 23.14 25.283Z"/><path fill="url(#T)" d="M1480.43 1175.23c0 14.07-10.35 25.93-23.14 26.48-12.82.55-23.25-10.47-23.25-24.62 0-14.14 10.43-26 23.25-26.48 12.79-.48 23.14 10.55 23.14 24.62Z"/><path fill="url(#U)" d="M1552.44 1036.49c0 13.97-10.19 25.59-22.79 25.94-12.63.36-22.9-10.72-22.9-24.76 0-14.04 10.27-25.66 22.9-25.95 12.6-.29 22.79 10.8 22.79 24.77Z"/></g><defs><linearGradient id="a" x1="1019.51" x2="487.672" y1="350.95" y2="1703.02" gradientUnits="userSpaceOnUse"><stop offset=".004" stop-color="#E38DDD"/><stop offset="1" stop-color="#9571F6"/></linearGradient><linearGradient id="b" x1="899.374" x2="367.314" y1="305.258" y2="1657.89" gradientUnits="userSpaceOnUse"><stop offset=".004" stop-color="#E38DDD"/><stop offset="1" stop-color="#9571F6"/></linearGradient><linearGradient id="c" x1="1037.07" x2="514.702" y1="372.101" y2="1700.09" gradientUnits="userSpaceOnUse"><stop offset=".004" stop-color="#E38DDD"/><stop offset="1" stop-color="#9571F6"/></linearGradient><linearGradient id="d" x1="1006.13" x2="468.566" y1="332.902" y2="1699.52" gradientUnits="userSpaceOnUse"><stop offset=".004" stop-color="#E38DDD"/><stop offset="1" stop-color="#9571F6"/></linearGradient><linearGradient id="e" x1="1141.54" x2="613.918" y1="400.779" y2="1742.13" gradientUnits="userSpaceOnUse"><stop offset=".004" stop-color="#E38DDD"/><stop offset="1" stop-color="#9571F6"/></linearGradient><linearGradient id="f" x1="882.563" x2="342.741" y1="285.186" y2="1657.55" gradientUnits="userSpaceOnUse"><stop offset=".004" stop-color="#E38DDD"/><stop offset="1" stop-color="#9571F6"/></linearGradient><linearGradient id="g" x1="1157.63" x2="637.579" y1="420.796" y2="1742.91" gradientUnits="userSpaceOnUse"><stop offset=".004" stop-color="#E38DDD"/><stop offset="1" stop-color="#9571F6"/></linearGradient><linearGradient id="h" x1="913.846" x2="388.966" y1="322.849" y2="1657.23" gradientUnits="userSpaceOnUse"><stop offset=".004" stop-color="#E38DDD"/><stop offset="1" stop-color="#9571F6"/></linearGradient><linearGradient id="i" x1="794.857" x2="267.99" y1="271.926" y2="1611.35" gradientUnits="userSpaceOnUse"><stop offset=".004" stop-color="#E38DDD"/><stop offset="1" stop-color="#9571F6"/></linearGradient><linearGradient id="j" x1="934.72" x2="417.313" y1="338.021" y2="1653.4" gradientUnits="userSpaceOnUse"><stop offset=".004" stop-color="#E38DDD"/><stop offset="1" stop-color="#9571F6"/></linearGradient><linearGradient id="k" x1="775.798" x2="241.45" y1="255.124" y2="1613.57" gradientUnits="userSpaceOnUse"><stop offset=".004" stop-color="#E38DDD"/><stop offset="1" stop-color="#9571F6"/></linearGradient><linearGradient id="l" x1="1055.35" x2="540.286" y1="388.94" y2="1698.36" gradientUnits="userSpaceOnUse"><stop offset=".004" stop-color="#E38DDD"/><stop offset="1" stop-color="#9571F6"/></linearGradient><linearGradient id="m" x1="1170.26" x2="656.834" y1="437.337" y2="1742.61" gradientUnits="userSpaceOnUse"><stop offset=".004" stop-color="#E38DDD"/><stop offset="1" stop-color="#9571F6"/></linearGradient><linearGradient id="n" x1="1188.2" x2="682.221" y1="452.018" y2="1738.35" gradientUnits="userSpaceOnUse"><stop offset=".004" stop-color="#E38DDD"/><stop offset="1" stop-color="#9571F6"/></linearGradient><linearGradient id="o" x1="1288.4" x2="777.643" y1="484.621" y2="1783.09" gradientUnits="userSpaceOnUse"><stop offset=".004" stop-color="#E38DDD"/><stop offset="1" stop-color="#9571F6"/></linearGradient><linearGradient id="p" x1="1304.1" x2="800.343" y1="500.582" y2="1781.25" gradientUnits="userSpaceOnUse"><stop offset=".004" stop-color="#E38DDD"/><stop offset="1" stop-color="#9571F6"/></linearGradient><linearGradient id="q" x1="1412.63" x2="910.006" y1="545.349" y2="1823.15" gradientUnits="userSpaceOnUse"><stop offset=".004" stop-color="#E38DDD"/><stop offset="1" stop-color="#9571F6"/></linearGradient><linearGradient id="r" x1="1302.28" x2="798.402" y1="499.714" y2="1780.7" gradientUnits="userSpaceOnUse"><stop offset=".004" stop-color="#E38DDD"/><stop offset="1" stop-color="#9571F6"/></linearGradient><linearGradient id="s" x1="1427.88" x2="932.68" y1="559.64" y2="1818.58" gradientUnits="userSpaceOnUse"><stop offset=".004" stop-color="#E38DDD"/><stop offset="1" stop-color="#9571F6"/></linearGradient><linearGradient id="t" x1="1402.45" x2="893.765" y1="530.169" y2="1823.37" gradientUnits="userSpaceOnUse"><stop offset=".004" stop-color="#E38DDD"/><stop offset="1" stop-color="#9571F6"/></linearGradient><linearGradient id="u" x1="1526.05" x2="1026.25" y1="590.843" y2="1861.47" gradientUnits="userSpaceOnUse"><stop offset=".004" stop-color="#E38DDD"/><stop offset="1" stop-color="#9571F6"/></linearGradient><linearGradient id="v" x1="1288.4" x2="777.643" y1="484.621" y2="1783.09" gradientUnits="userSpaceOnUse"><stop offset=".004" stop-color="#E38DDD"/><stop offset="1" stop-color="#9571F6"/></linearGradient><linearGradient id="w" x1="1539.39" x2="1046.31" y1="606.016" y2="1859.55" gradientUnits="userSpaceOnUse"><stop offset=".004" stop-color="#E38DDD"/><stop offset="1" stop-color="#9571F6"/></linearGradient><linearGradient id="x" x1="1313.71" x2="817.411" y1="513.84" y2="1775.55" gradientUnits="userSpaceOnUse"><stop offset=".004" stop-color="#E38DDD"/><stop offset="1" stop-color="#9571F6"/></linearGradient><linearGradient id="y" x1="1204.03" x2="704.684" y1="464.378" y2="1733.85" gradientUnits="userSpaceOnUse"><stop offset=".004" stop-color="#E38DDD"/><stop offset="1" stop-color="#9571F6"/></linearGradient><linearGradient id="z" x1="1331.54" x2="840.671" y1="523.796" y2="1771.71" gradientUnits="userSpaceOnUse"><stop offset=".004" stop-color="#E38DDD"/><stop offset="1" stop-color="#9571F6"/></linearGradient><linearGradient id="A" x1="1188.2" x2="682.221" y1="452.018" y2="1738.35" gradientUnits="userSpaceOnUse"><stop offset=".004" stop-color="#E38DDD"/><stop offset="1" stop-color="#9571F6"/></linearGradient><linearGradient id="B" x1="1443.13" x2="954.416" y1="572.153" y2="1814.58" gradientUnits="userSpaceOnUse"><stop offset=".004" stop-color="#E38DDD"/><stop offset="1" stop-color="#9571F6"/></linearGradient><linearGradient id="C" x1="1216.29" x2="726.387" y1="475.724" y2="1721.18" gradientUnits="userSpaceOnUse"><stop offset=".004" stop-color="#E38DDD"/><stop offset="1" stop-color="#9571F6"/></linearGradient><linearGradient id="D" x1="1106.6" x2="611.544" y1="424.16" y2="1682.73" gradientUnits="userSpaceOnUse"><stop offset=".004" stop-color="#E38DDD"/><stop offset="1" stop-color="#9571F6"/></linearGradient><linearGradient id="E" x1="1235.95" x2="749.182" y1="483.287" y2="1720.77" gradientUnits="userSpaceOnUse"><stop offset=".004" stop-color="#E38DDD"/><stop offset="1" stop-color="#9571F6"/></linearGradient><linearGradient id="F" x1="1088.94" x2="587.489" y1="414.229" y2="1689.04" gradientUnits="userSpaceOnUse"><stop offset=".004" stop-color="#E38DDD"/><stop offset="1" stop-color="#9571F6"/></linearGradient><linearGradient id="G" x1="1347.65" x2="863.084" y1="533.557" y2="1765.44" gradientUnits="userSpaceOnUse"><stop offset=".004" stop-color="#E38DDD"/><stop offset="1" stop-color="#9571F6"/></linearGradient><linearGradient id="H" x1="969.048" x2="468.795" y1="363.608" y2="1635.38" gradientUnits="userSpaceOnUse"><stop offset=".004" stop-color="#E38DDD"/><stop offset="1" stop-color="#9571F6"/></linearGradient><linearGradient id="I" x1="854.979" x2="348.941" y1="309.799" y2="1596.28" gradientUnits="userSpaceOnUse"><stop offset=".004" stop-color="#E38DDD"/><stop offset="1" stop-color="#9571F6"/></linearGradient><linearGradient id="J" x1="991.343" x2="493.957" y1="371.946" y2="1636.43" gradientUnits="userSpaceOnUse"><stop offset=".004" stop-color="#E38DDD"/><stop offset="1" stop-color="#9571F6"/></linearGradient><linearGradient id="K" x1="834.706" x2="322.016" y1="299.169" y2="1602.56" gradientUnits="userSpaceOnUse"><stop offset=".004" stop-color="#E38DDD"/><stop offset="1" stop-color="#9571F6"/></linearGradient><linearGradient id="L" x1="1107.48" x2="612.417" y1="424.551" y2="1683.14" gradientUnits="userSpaceOnUse"><stop offset=".004" stop-color="#E38DDD"/><stop offset="1" stop-color="#9571F6"/></linearGradient><linearGradient id="M" x1="808.837" x2="290.912" y1="287.066" y2="1603.76" gradientUnits="userSpaceOnUse"><stop offset=".004" stop-color="#E38DDD"/><stop offset="1" stop-color="#9571F6"/></linearGradient><linearGradient id="N" x1="690.346" x2="168.331" y1="232.47" y2="1559.57" gradientUnits="userSpaceOnUse"><stop offset=".004" stop-color="#E38DDD"/><stop offset="1" stop-color="#9571F6"/></linearGradient><linearGradient id="O" x1="832.326" x2="319.55" y1="298.099" y2="1601.7" gradientUnits="userSpaceOnUse"><stop offset=".004" stop-color="#E38DDD"/><stop offset="1" stop-color="#9571F6"/></linearGradient><linearGradient id="P" x1="669.16" x2="139.942" y1="218.578" y2="1563.98" gradientUnits="userSpaceOnUse"><stop offset=".004" stop-color="#E38DDD"/><stop offset="1" stop-color="#9571F6"/></linearGradient><linearGradient id="Q" x1="953.077" x2="442.691" y1="351.188" y2="1648.72" gradientUnits="userSpaceOnUse"><stop offset=".004" stop-color="#E38DDD"/><stop offset="1" stop-color="#9571F6"/></linearGradient><linearGradient id="R" x1="1549.19" x2="1063.13" y1="619.43" y2="1855.12" gradientUnits="userSpaceOnUse"><stop offset=".004" stop-color="#E38DDD"/><stop offset="1" stop-color="#9571F6"/></linearGradient><linearGradient id="S" x1="1564.53" x2="1083.97" y1="628.957" y2="1850.65" gradientUnits="userSpaceOnUse"><stop offset=".004" stop-color="#E38DDD"/><stop offset="1" stop-color="#9571F6"/></linearGradient><linearGradient id="T" x1="1658.95" x2="1174.21" y1="663.342" y2="1895.67" gradientUnits="userSpaceOnUse"><stop offset=".004" stop-color="#E38DDD"/><stop offset="1" stop-color="#9571F6"/></linearGradient><linearGradient id="U" x1="1671.95" x2="1193.45" y1="675.184" y2="1891.65" gradientUnits="userSpaceOnUse"><stop offset=".004" stop-color="#E38DDD"/><stop offset="1" stop-color="#9571F6"/></linearGradient></defs></svg>